<?xml version="1.0" encoding="UTF-8" standalone="no"?>
<svg viewBox="0 0 800 700" xmlns="http://www.w3.org/2000/svg" xmlns:svg="http://www.w3.org/2000/svg">
    <path
       d="M 217.71268,218.92692 V 112.80261 h -16.75647 v 70.42574 l -63.44388,-72.18638 h -6.07119 v 106.18502 h 16.75648 v -70.54717 l 63.5653,72.2471 z"
       fill="#000000"
       id="path20"
       style="fill:#000000;fill-opacity:1;stroke-width:6.07118" />
    <path
       d="m 313.39455,217.22699 h 16.81718 V 112.80261 h -16.81718 v 41.58762 h -52.33361 v -41.58762 h -16.93861 v 104.42438 h 16.93861 v -47.78023 h 52.51575 z"
       fill="#000000"
       id="path21"
       style="fill:#000000;fill-opacity:1;stroke-width:6.07118" />
    <path
       d="m 176.48934,358.19989 a 20.156333,20.156333 0 0 1 -13.05305,3.94627 33.148668,33.148668 0 0 1 -27.38104,-16.08864 l -11.83881,8.98536 a 44.137512,44.137512 0 0 0 16.27077,16.63504 44.987477,44.987477 0 0 0 23.13122,6.07119 37.762768,37.762768 0 0 0 25.07399,-8.31752 27.077483,27.077483 0 0 0 9.89603,-21.91698 24.284739,24.284739 0 0 0 -6.07119,-17.06003 57.85839,57.85839 0 0 0 -18.82067,-12.62806 l -11.71738,-5.40336 a 55.369204,55.369204 0 0 1 -11.2317,-6.61759 10.260302,10.260302 0 0 1 -3.46057,-8.31753 10.745997,10.745997 0 0 1 4.49268,-9.65318 18.759961,18.759961 0 0 1 11.23169,-3.21772 25.377552,25.377552 0 0 1 22.09911,12.8709 l 11.71739,-9.04606 a 37.337786,37.337786 0 0 0 -13.78159,-13.53874 39.219853,39.219853 0 0 0 -19.91349,-5.16052 35.577142,35.577142 0 0 0 -23.49548,7.58899 25.256128,25.256128 0 0 0 -9.47105,20.4599 23.67762,23.67762 0 0 0 6.43545,16.9386 55.187068,55.187068 0 0 0 18.21356,12.14237 l 11.53525,5.40336 a 50.451543,50.451543 0 0 1 11.7781,6.98186 11.110268,11.110268 0 0 1 3.582,8.68179 13.053047,13.053047 0 0 1 -5.22122,10.2603 z"
       fill="#000000"
       id="path22"
       style="fill:#000000;fill-opacity:1;stroke-width:6.07118" />
    <path
       d="m 261.3645,375.62419 v -89.36783 h 35.27357 v -15.05654 h -87.12149 v 15.05654 h 35.09145 v 89.36783 z"
       fill="#000000"
       id="path23"
       style="fill:#000000;fill-opacity:1;stroke-width:6.07118" />
    <path
       d="m 382.8489,360.56766 h -53.79069 v -32.72369 h 39.09843 v -14.57084 h -39.09843 v -26.71321 h 51.90863 v -15.3601 h -68.6651 v 104.42437 h 70.54716 z"
       fill="#000000"
       id="path24"
       style="fill:#000000;fill-opacity:1;stroke-width:6.07118" />
    <path
       d="m 547.49943,271.19982 h -32.72368 v 104.42437 h 32.72368 a 57.736966,57.736966 0 0 0 41.40548,-14.63155 49.480155,49.480155 0 0 0 15.60294,-37.70206 49.055171,49.055171 0 0 0 -15.60294,-37.64134 58.283373,58.283373 0 0 0 -41.40548,-14.44942 z m 28.77742,78.9254 a 39.705548,39.705548 0 0 1 -28.95955,10.44244 h -15.78509 v -74.18988 h 15.8458 a 40.737648,40.737648 0 0 1 29.02026,10.01745 35.091447,35.091447 0 0 1 10.68527,26.83464 36.062837,36.062837 0 0 1 -10.80669,26.89535 z"
       fill="#000000"
       id="path25"
       style="fill:#000000;fill-opacity:1;stroke-width:6.07118" />
    <path
       d="m 640.99567,327.84397 h 38.97701 v -14.57084 h -39.03772 v -26.71321 h 51.84792 v -15.3601 h -68.60439 v 104.42437 h 70.54717 v -15.05653 h -53.7907 z"
       fill="#000000"
       id="path26"
       style="fill:#000000;fill-opacity:1;stroke-width:6.07118" />
    <path
       d="m 783.48638,271.19982 v 70.42574 L 720.0425,269.49988 h -6.07119 v 106.12431 h 16.75647 v -70.54716 l 63.62601,72.2471 H 800 V 271.19982 Z"
       fill="#000000"
       id="path27"
       style="fill:#000000;fill-opacity:1;stroke-width:6.07118" />
    <path
       d="M 0.789254,488.24467 H 489.03392 V 271.19982 h -17.84928 v 69.94004 l -63.01891,-71.63998 h -6.07117 v 106.12431 h 16.81718 v -70.54716 l 52.2729,59.19405 V 470.39539 H 18.638536 V 17.849283 H 471.18464 V 202.10974 h -97.80678 v -89.30713 h -16.75647 v 104.42438 h 91.55346 v 0 h 40.85907 v -15.05654 0 V 0 H 0.789254 Z"
       fill="#000000"
       id="path28"
       style="fill:#000000;fill-opacity:1;stroke-width:6.07118" />
    <path
       d="M 22.827653,561.706 A 16.75647,16.75647 0 0 0 9.7138954,567.17007 V 538.81764 H 0 v 69.27221 h 9.7138954 v -26.95606 a 10.381725,10.381725 0 0 1 2.9141686,-7.58899 10.138878,10.138878 0 0 1 7.406844,-2.85344 9.4710479,9.4710479 0 0 1 7.224711,2.91415 10.988844,10.988844 0 0 1 2.671321,7.64971 v 26.95606 h 9.713896 V 579.73742 A 18.213554,18.213554 0 0 0 35.091447,566.74509 15.724368,15.724368 0 0 0 22.827653,561.706 Z"
       fill="#000000"
       id="path29"
       style="fill:#000000;fill-opacity:1;stroke-width:6.07118" />
    <path
       d="m 74.129164,561.706 a 23.556196,23.556196 0 0 0 -16.999317,6.79973 23.920467,23.920467 0 0 0 0,33.63435 24.284739,24.284739 0 0 0 34.059346,0 23.67762,23.67762 0 0 0 0,-33.69506 23.920467,23.920467 0 0 0 -17.060029,-6.73902 z m 10.078167,34.24148 a 13.538742,13.538742 0 0 1 -10.078167,4.18911 13.356606,13.356606 0 0 1 -10.078166,-4.18911 15.967216,15.967216 0 0 1 0,-21.06701 13.781589,13.781589 0 0 1 10.19959,-4.18911 13.417318,13.417318 0 0 1 10.017455,4.31054 15.78508,15.78508 0 0 1 0,21.06701 z"
       fill="#000000"
       id="path30"
       style="fill:#000000;fill-opacity:1;stroke-width:6.07118" />
    <path
       d="m 144.85846,569.23427 a 18.638536,18.638536 0 0 0 -16.08863,-7.46756 21.249146,21.249146 0 0 0 -15.78508,6.07119 22.281248,22.281248 0 0 0 -6.07119,16.33149 22.524095,22.524095 0 0 0 6.07119,16.33147 21.249146,21.249146 0 0 0 15.78508,6.37476 19.124232,19.124232 0 0 0 15.29938,-5.82835 v 3.15703 a 12.142369,12.142369 0 0 1 -3.70342,9.65317 14.327996,14.327996 0 0 1 -9.89603,3.27845 25.31684,25.31684 0 0 1 -15.90651,-6.43546 l -5.28193,6.49617 a 30.720194,30.720194 0 0 0 21.79555,8.56037 23.131213,23.131213 0 0 0 16.51363,-6.07118 21.491994,21.491994 0 0 0 6.07118,-16.51363 v -40.37337 h -8.86393 v 6.43545 z m -4.67481,25.74182 a 13.660165,13.660165 0 0 1 -9.65318,3.70343 13.356606,13.356606 0 0 1 -9.89603,-3.70343 13.903013,13.903013 0 0 1 -3.94627,-10.32101 13.417318,13.417318 0 0 1 13.8423,-13.96372 14.024437,14.024437 0 0 1 9.65318,3.52127 13.174471,13.174471 0 0 1 4.00699,10.44245 13.781589,13.781589 0 0 1 -4.00699,10.32101 z"
       fill="#000000"
       id="path31"
       style="fill:#000000;fill-opacity:1;stroke-width:6.07118" />
    <path
       d="m 188.20672,561.706 a 22.524095,22.524095 0 0 0 -16.63504,6.86044 23.252637,23.252637 0 0 0 -6.79973,16.87789 22.584807,22.584807 0 0 0 6.92115,16.81718 24.284739,24.284739 0 0 0 17.4243,6.79973 25.498975,25.498975 0 0 0 18.21356,-7.28543 l -4.49268,-6.79972 a 19.488503,19.488503 0 0 1 -13.17447,5.34264 15.360097,15.360097 0 0 1 -9.89603,-3.15701 13.903013,13.903013 0 0 1 -4.91766,-8.74251 h 33.8165 a 27.563178,27.563178 0 0 0 0.72854,-6.07118 20.217045,20.217045 0 0 0 -6.07119,-14.8744 20.70274,20.70274 0 0 0 -15.11725,-5.76763 z m -13.17447,19.30637 a 14.085148,14.085148 0 0 1 4.67482,-8.07469 12.50664,12.50664 0 0 1 8.49965,-2.97487 11.656675,11.656675 0 0 1 8.1961,2.97487 10.685285,10.685285 0 0 1 3.39987,8.07469 z"
       fill="#000000"
       id="path32"
       style="fill:#000000;fill-opacity:1;stroke-width:6.07118" />
    <path
       d="m 238.90112,581.55878 -4.37126,-1.76065 a 18.820672,18.820672 0 0 1 -4.67481,-2.42847 3.7034226,3.7034226 0 0 1 -1.33566,-2.91418 q 0,-4.37124 6.07118,-4.37124 a 14.14586,14.14586 0 0 1 10.62458,4.6141 l 5.28193,-6.07119 a 19.549215,19.549215 0 0 0 -15.72437,-7.04257 18.213554,18.213554 0 0 0 -11.47454,3.52129 11.413827,11.413827 0 0 0 -4.49268,9.59247 10.624573,10.624573 0 0 0 3.0356,8.13539 28.291719,28.291719 0 0 0 8.92464,5.46405 l 4.6141,1.94279 a 26.713212,26.713212 0 0 1 4.85695,2.48919 3.5819989,3.5819989 0 0 1 1.51778,3.15701 4.2498292,4.2498292 0 0 1 -2.06419,3.76414 9.7746073,9.7746073 0 0 1 -5.22122,1.27494 17.788571,17.788571 0 0 1 -12.74949,-6.43545 l -5.52477,6.07117 a 21.795553,21.795553 0 0 0 18.21355,8.74252 19.367079,19.367079 0 0 0 12.14237,-3.64271 12.142369,12.142369 0 0 0 4.73552,-10.68529 10.806709,10.806709 0 0 0 -2.97488,-7.89255 28.959551,28.959551 0 0 0 -9.41033,-5.52476 z"
       fill="#000000"
       id="path33"
       style="fill:#000000;fill-opacity:1;stroke-width:6.07118" />
    <path
       d="m 283.70645,570.69136 a 14.570843,14.570843 0 0 1 12.14238,6.92115 l 6.79972,-5.34265 a 21.37057,21.37057 0 0 0 -7.83182,-7.64969 22.159824,22.159824 0 0 0 -11.23171,-2.79274 23.556196,23.556196 0 0 0 -16.9993,6.79972 22.524095,22.524095 0 0 0 -6.98186,16.81718 22.706231,22.706231 0 0 0 6.98186,16.8779 23.131213,23.131213 0 0 0 16.9993,6.86044 21.249146,21.249146 0 0 0 19.12425,-10.50315 l -6.79973,-5.28193 a 14.752979,14.752979 0 0 1 -12.14238,6.79971 13.47803,13.47803 0 0 1 -10.19958,-4.1891 15.78508,15.78508 0 0 1 0,-21.0063 13.356606,13.356606 0 0 1 10.13887,-4.31054 z"
       fill="#000000"
       id="path34"
       style="fill:#000000;fill-opacity:1;stroke-width:6.07118" />
    <path
       d="m 336.22221,561.706 a 16.75647,16.75647 0 0 0 -13.11376,5.46407 v -28.35243 h -9.7139 v 69.27221 h 9.7139 v -26.95606 a 10.381725,10.381725 0 0 1 2.91417,-7.58899 10.138878,10.138878 0 0 1 7.40684,-2.85344 9.3496243,9.3496243 0 0 1 7.22471,2.91415 10.988844,10.988844 0 0 1 2.67132,7.64971 v 26.95606 h 9.71389 V 579.73742 A 18.213554,18.213554 0 0 0 348.486,566.74509 15.663656,15.663656 0 0 0 336.22221,561.706 Z"
       fill="#000000"
       id="path35"
       style="fill:#000000;fill-opacity:1;stroke-width:6.07118" />
    <path
       d="m 387.58443,561.706 a 23.434773,23.434773 0 0 0 -17.24217,6.79973 23.920467,23.920467 0 0 0 0,33.63435 24.284739,24.284739 0 0 0 34.05935,0 23.67762,23.67762 0 0 0 0,-33.69506 23.616908,23.616908 0 0 0 -16.81718,-6.73902 z m 10.01745,34.24148 a 13.538742,13.538742 0 0 1 -10.07816,4.18911 13.356606,13.356606 0 0 1 -10.07817,-4.18911 15.967216,15.967216 0 0 1 0,-21.06701 13.781589,13.781589 0 0 1 10.19959,-4.18911 13.417318,13.417318 0 0 1 10.01745,4.31054 14.692267,14.692267 0 0 1 4.00699,10.56386 14.449419,14.449419 0 0 1 -4.0677,10.38172 z"
       fill="#000000"
       id="path36"
       style="fill:#000000;fill-opacity:1;stroke-width:6.07118" />
    <path
       d="m 443.8036,561.706 a 23.556196,23.556196 0 0 0 -16.99932,6.79973 23.920467,23.920467 0 0 0 0,33.63435 24.284739,24.284739 0 0 0 34.05935,0 23.67762,23.67762 0 0 0 0,-33.69506 24.284739,24.284739 0 0 0 -17.06003,-6.73902 z m 10.01745,34.24148 a 13.538742,13.538742 0 0 1 -10.07816,4.18911 13.356606,13.356606 0 0 1 -10.07817,-4.18911 15.967216,15.967216 0 0 1 0,-21.06701 13.781589,13.781589 0 0 1 10.19959,-4.18911 13.417318,13.417318 0 0 1 10.01745,4.31054 14.692267,14.692267 0 0 1 4.00699,10.56386 14.449419,14.449419 0 0 1 -4.0677,10.38172 z"
       fill="#000000"
       id="path37"
       style="fill:#000000;fill-opacity:1;stroke-width:6.07118" />
    <path
       d="m 488.66965,538.81764 h -9.71389 v 69.27221 h 9.71389 z"
       fill="#000000"
       id="path38"
       style="fill:#000000;fill-opacity:1;stroke-width:6.07118" />
</svg>
