<?xml version="1.0" encoding="UTF-8" standalone="no"?>
<svg viewBox="0 0 800 700" xmlns="http://www.w3.org/2000/svg" xmlns:svg="http://www.w3.org/2000/svg">
<path
     d="m 36.700485,590.91309 c 0.176444,5.1169 -1.588002,9.8809 -5.116895,13.58624 -3.528893,3.35245 -8.292898,5.29334 -13.056903,5.11689 -9.7044551,0.3529 -17.99735309,-7.05778 -18.35024236,-16.76224 0,-0.52933 0,-1.23511 0,-1.76444 V 566.38728 H 8.9986766 v 25.05515 c -0.1764447,2.64667 0.8822231,5.11689 2.6466694,7.05778 1.764446,1.76445 4.234671,2.64667 6.881341,2.64667 2.470225,0 4.94045,-0.88222 6.704896,-2.64667 1.764446,-1.94089 2.823114,-4.41111 2.64667,-7.05778 v -25.05515 h 8.998676 z"
     id="path29"
     style="fill:#000000;fill-opacity:1;stroke-width:1.76445" /><path
     d="m 81.870312,570.09262 c 2.823115,3.35246 4.411116,7.76357 4.234672,12.17468 v 26.29026 h -8.998677 v -25.23159 c 0.176444,-2.64666 -0.882223,-5.11689 -2.470225,-7.05778 -1.764446,-1.76445 -4.234672,-2.82311 -6.704896,-2.64667 -2.64667,0 -5.116895,0.88222 -6.881341,2.82311 -1.764447,1.94089 -2.823115,4.41112 -2.64667,7.05779 v 25.05514 h -8.998676 v -42.17028 h 8.469343 v 4.23468 c 3.176003,-3.52889 7.940008,-5.29334 12.704013,-5.1169 4.234672,-0.17644 8.469343,1.41156 11.292457,4.58756 z"
     id="path31"
     style="fill:#000000;fill-opacity:1;stroke-width:1.76445" /><path
     d="m 107.45479,546.44904 c 1.23511,1.05867 1.76444,2.64667 1.76444,4.23468 0,1.58799 -0.52933,3.176 -1.76444,4.23466 -1.05867,1.05867 -2.64668,1.76445 -4.23468,1.76445 -1.588,0 -3.176,-0.52933 -4.411113,-1.76445 -1.235112,-1.05866 -1.764446,-2.64667 -1.764446,-4.23466 0,-1.58801 0.529334,-3.17601 1.764446,-4.23468 1.235113,-1.23511 2.823113,-1.76445 4.411113,-1.76445 1.588,0 3.17601,0.70579 4.23468,1.76445 z m 0.35288,62.10852 h -9.175117 v -42.17028 h 8.998677 z"
     id="path32"
     style="fill:#000000;fill-opacity:1;stroke-width:1.76445" /><path
     d="m 159.68239,566.38728 -20.29112,43.0525 h -3.17601 l -20.29113,-43.0525 h 9.52801 l 12.35112,27.87826 12.35113,-27.87826 z"
     id="path33"
     style="fill:#000000;fill-opacity:1;stroke-width:1.76445" /><path
     d="M 204.14644,590.38376 H 172.7393 c 0.35289,3.176 2.11733,6.17556 4.58756,8.11645 2.64667,1.9409 5.82267,2.99957 9.17513,2.82311 4.58756,0 8.99867,-1.76443 12.35112,-4.94044 l 4.23467,6.17556 c -4.41111,4.41111 -10.58668,6.88134 -16.76224,6.7049 -5.99912,0.17644 -11.82179,-2.11734 -16.23291,-6.35201 -4.23467,-4.05823 -6.52845,-9.70445 -6.352,-15.70357 -0.17645,-5.82268 2.11733,-11.46891 6.352,-15.70357 4.05823,-4.23468 9.70446,-6.52846 15.52713,-6.35201 5.29333,-0.17645 10.23379,1.76444 13.93913,5.46978 3.70533,3.70534 5.64623,8.64579 5.46978,13.76269 -0.17645,2.29377 -0.35289,4.23466 -0.88223,5.99911 z M 177.15042,575.9153 c -2.29379,1.94089 -3.70534,4.58756 -4.41112,7.58712 h 22.9378 c 0,-2.82311 -1.05867,-5.64623 -3.176,-7.58712 -2.11733,-1.9409 -4.764,-2.82311 -7.58712,-2.82311 -2.82311,0 -5.46979,1.05867 -7.76356,2.82311 z"
     id="path34"
     style="fill:#000000;fill-opacity:1;stroke-width:1.76445" /><path
     d="m 239.25893,566.38728 v 7.94002 h -2.64667 c -3.17601,-0.17644 -6.35201,1.05867 -8.82224,2.99956 -2.47022,2.11733 -3.70532,5.29334 -3.52888,8.64578 v 22.58492 h -9.17513 v -42.17028 h 8.46935 v 5.46979 c 2.82311,-3.88178 7.58712,-6.17556 12.35112,-5.99911 1.05867,0.17644 2.29379,0.35288 3.35245,0.52932 z"
     id="path35"
     style="fill:#000000;fill-opacity:1;stroke-width:1.76445" /><path
     d="m 275.25364,572.03351 -4.94045,5.64623 c -2.47023,-2.82311 -6.17557,-4.41111 -9.8809,-4.23466 -3.88179,0 -5.82268,1.41155 -5.82268,4.05822 0,1.05867 0.35289,2.11733 1.23511,2.64667 1.23512,1.05867 2.82312,1.76445 4.41112,2.29378 l 4.05823,1.588 c 3.35245,1.23511 6.35201,2.99956 8.82223,5.29334 1.9409,1.9409 2.82312,4.58757 2.82312,7.41068 0.17644,3.70534 -1.41156,7.23422 -4.41112,9.52801 -3.176,2.29378 -7.23423,3.52889 -11.11601,3.35244 -6.7049,0.17645 -13.05691,-2.82311 -16.93869,-8.11644 l 5.1169,-5.64623 c 3.88178,4.05822 7.76356,5.99911 11.82179,5.99911 1.76444,0 3.35245,-0.35288 4.94044,-1.23511 1.23512,-0.70578 1.94089,-2.11734 1.94089,-3.52889 0,-1.23511 -0.52932,-2.29378 -1.41155,-2.82312 -1.41156,-0.88222 -2.99956,-1.76445 -4.58756,-2.29377 l -4.23467,-1.76445 c -2.99956,-1.05867 -5.82268,-2.82312 -8.2929,-5.1169 -1.76444,-1.94089 -2.82311,-4.58756 -2.64667,-7.23423 -0.17644,-3.52889 1.41155,-6.88134 4.23467,-8.99868 2.99956,-2.29377 6.7049,-3.35245 10.58668,-3.35245 5.46978,-0.17644 10.76312,2.11734 14.29202,6.52845 z"
     id="path36"
     style="fill:#000000;fill-opacity:1;stroke-width:1.76445" /><path
     d="m 295.19188,546.44904 c 1.23511,1.05867 1.76445,2.64667 1.76445,4.23468 0,1.58799 -0.52934,3.176 -1.76445,4.23466 -1.05867,1.05867 -2.64667,1.76445 -4.23468,1.76445 -1.58799,0 -3.176,-0.52933 -4.4111,-1.76445 -1.23512,-1.05866 -1.76445,-2.64667 -1.76445,-4.23466 0,-1.58801 0.52933,-3.17601 1.76445,-4.23468 1.2351,-1.23511 2.82311,-1.76445 4.4111,-1.76445 1.58801,0 3.17601,0.70579 4.23468,1.76445 z m 0.17644,62.10852 h -8.99867 v -42.17028 h 8.99867 z"
     id="path37"
     style="fill:#000000;fill-opacity:1;stroke-width:1.76445" /><path
     d="m 333.48037,600.97044 v 7.58712 c -2.47023,0.52933 -4.94046,0.88222 -7.41067,0.88222 -4.05824,0.17644 -8.11646,-1.05867 -11.4689,-3.70534 -2.82312,-2.47022 -4.05824,-6.17555 -4.05824,-10.93956 v -20.64402 h -7.05778 v -7.76358 h 6.88134 v -11.116 h 9.17512 v 11.116 h 12.52757 v 7.76358 h -12.52757 v 19.7618 c -0.17644,2.11733 0.52933,4.23466 2.11734,5.64623 1.76444,1.2351 4.05822,1.76443 6.17556,1.58799 1.94089,0.17644 3.88178,0 5.64623,-0.17644 z"
     id="path38"
     style="fill:#000000;fill-opacity:1;stroke-width:1.76445" /><path
     d="m 381.4733,566.38728 -20.46757,46.93428 c -1.41156,3.35245 -3.52889,6.52845 -6.35201,8.82224 -2.64667,1.94089 -5.82267,2.82311 -9.17512,2.82311 -2.29378,0 -4.76401,-0.35289 -6.88134,-0.88222 v -7.58712 c 2.64667,0.17644 4.23467,0.35289 4.94045,0.35289 1.94089,0 3.70534,-0.35289 5.46978,-1.41157 1.76445,-1.23511 2.99956,-2.82311 3.70534,-4.94044 l 1.76445,-3.88178 -16.76224,-40.22939 h 9.70445 l 12.17468,30.70138 12.35112,-30.70138 z"
     id="path39"
     style="fill:#000000;fill-opacity:1;stroke-width:1.76445" /><path
     d="m 449.0516,571.85707 c 8.64579,8.46934 8.82223,22.40847 0.35289,31.05426 -0.17644,0.17644 -0.17644,0.17644 -0.35289,0.35289 -8.82222,8.46935 -22.76135,8.46935 -31.58358,0 -8.6458,-8.64579 -8.6458,-22.58491 0,-31.23071 4.23467,-4.23466 9.88089,-6.52845 15.88001,-6.352 5.99912,-0.17645 11.64535,2.11734 15.70357,6.17556 z m -25.05514,5.99912 c -4.94045,5.64623 -4.94045,13.93912 0,19.58535 2.47023,2.64667 5.82268,4.05824 9.35157,3.88178 3.52889,0 6.88135,-1.41155 9.35156,-3.88178 2.47023,-2.64666 3.88179,-6.17555 3.70534,-9.70445 0.17645,-3.70534 -1.23511,-7.23423 -3.70534,-9.8809 -4.94044,-5.1169 -13.23334,-5.29334 -18.35023,-0.35289 0,0 -0.17645,0.17644 -0.3529,0.35289 z"
     id="path40"
     style="fill:#000000;fill-opacity:1;stroke-width:1.76445" /><path
     d="m 478.6943,552.97749 c -1.588,1.41157 -2.29378,3.5289 -2.11733,5.64623 v 7.76356 h 9.8809 v 7.76358 h -9.8809 v 34.4067 h -8.99868 v -34.4067 h -5.99912 v -7.76358 h 5.99912 v -8.46934 c 0,-4.94045 1.41156,-8.64578 4.05823,-10.93956 2.99956,-2.64667 7.05778,-3.88178 10.93957,-3.70534 1.94089,0 3.88178,0.17645 5.82267,0.70578 v 7.58712 c -1.23512,-0.17644 -2.29378,-0.17644 -3.52889,-0.17644 -2.11734,-0.17645 -4.41112,0.35289 -6.17557,1.58799 z"
     id="path41"
     style="fill:#000000;fill-opacity:1;stroke-width:1.76445" /><path
     d="m 23.467137,659.90295 c 2.470225,2.64666 3.705337,6.17556 3.528892,9.70445 v 18.87958 h -6.175561 v -3.5289 c -2.470225,2.82312 -6.175563,4.41112 -10.057345,4.23468 C 7.9400088,689.3692 5.1168945,688.31054 2.9995589,686.54609 1.0586678,684.95808 0,682.48787 0,680.01764 c 0,-2.47023 1.0586678,-4.94045 3.1760035,-6.52846 2.470225,-1.76444 5.4697838,-2.64667 8.4693425,-2.47022 h 8.822232 v -1.94089 c 0.176445,-1.76445 -0.529334,-3.70534 -1.764447,-4.94045 -1.411557,-1.23511 -3.176002,-1.94089 -4.940449,-1.76445 -3.352449,0.17644 -6.7048965,1.94089 -8.6457875,4.58756 l -3.881782,-3.88178 c 2.9995588,-4.23467 7.9400087,-6.70489 13.2333475,-6.52845 3.176004,-0.17644 6.352008,1.05867 8.998677,3.35245 z m -5.646228,22.05558 c 1.588001,-1.41156 2.470224,-3.35245 2.29378,-5.29335 v -0.52932 H 12.17468 c -3.7053373,0 -5.4697837,1.23511 -5.4697837,3.88178 0,1.23511 0.5293339,2.29377 1.5880017,2.99955 1.2351125,0.70579 2.470225,1.05867 3.881782,1.05867 1.940891,0 4.058227,-0.70578 5.646229,-2.11733 z"
     id="path42"
     style="fill:#000000;fill-opacity:1;stroke-width:1.76445" /><path
     d="m 64.225849,661.13806 c 5.822673,6.7049 5.822673,16.58579 0,23.2907 -2.823115,2.99955 -6.881341,4.764 -10.939568,4.58755 -4.058227,0.17645 -7.763564,-1.41155 -10.410233,-4.41111 v 15.17424 H 36.17115 v -42.6996 h 6.175563 v 4.41111 c 1.235113,-1.588 2.823115,-2.99956 4.587561,-3.70534 5.999117,-2.47022 12.880458,-1.23511 17.291575,3.35245 z m -5.29334,19.05602 c 3.705338,-4.23467 3.705338,-10.41023 0,-14.6449 -1.764446,-1.9409 -4.234671,-2.99957 -6.88134,-2.82311 -2.470225,0 -4.940451,0.88221 -6.704897,2.64666 -1.940891,1.94089 -2.999559,4.764 -2.823114,7.58712 -0.176445,2.82311 0.882223,5.64623 2.823114,7.58712 1.764446,1.76444 4.234672,2.64667 6.704897,2.64667 2.646669,0 5.293339,-1.05867 6.88134,-2.99956 z"
     id="path43"
     style="fill:#000000;fill-opacity:1;stroke-width:1.76445" /><path
     d="m 104.45523,661.13806 c 5.82267,6.7049 5.82267,16.58579 0,23.2907 -2.82312,2.99955 -6.881345,4.764 -10.939572,4.58755 -4.058227,0.17645 -7.763564,-1.41155 -10.410233,-4.41111 v 15.17424 h -6.704897 v -42.6996 h 6.175562 v 4.41111 c 1.235113,-1.588 2.823115,-2.99956 4.587561,-3.70534 5.822674,-2.47022 12.704015,-1.23511 17.291579,3.35245 z m -5.293343,19.05602 c 3.705333,-4.23467 3.705333,-10.41023 0,-14.6449 -1.764446,-1.9409 -4.234672,-2.99957 -6.881341,-2.82311 -2.470225,0 -4.94045,0.88221 -6.704897,2.64666 -1.94089,1.94089 -2.999559,4.764 -2.823114,7.58712 -0.176445,2.82311 0.882224,5.64623 2.823114,7.58712 1.764447,1.76444 4.234672,2.64667 6.704897,2.64667 2.646669,0 5.116895,-1.05867 6.881341,-2.99956 z"
     id="path44"
     style="fill:#000000;fill-opacity:1;stroke-width:1.76445" /><path
     d="m 123.15836,688.48698 h -6.52845 v -47.64006 h 6.70489 z"
     id="path45"
     style="fill:#000000;fill-opacity:1;stroke-width:1.76445" /><path
     d="m 139.39127,642.43493 c 0.88222,0.88222 1.41155,1.94089 1.41155,3.176 0,1.23512 -0.52933,2.29378 -1.41155,3.17601 -0.88223,0.88222 -1.94089,1.23511 -3.17601,1.23511 -1.23511,0 -2.29378,-0.35289 -3.176,-1.23511 -0.88223,-0.88223 -1.41156,-1.94089 -1.41156,-3.17601 0,-1.23511 0.52933,-2.29378 1.41156,-3.176 0.88222,-0.88223 2.11733,-1.41155 3.176,-1.23511 1.05867,0 2.29378,0.35288 3.17601,1.23511 z m 0,46.05205 h -6.7049 v -31.2307 h 6.7049 z"
     id="path46"
     style="fill:#000000;fill-opacity:1;stroke-width:1.76445" /><path
     d="m 177.15042,675.07719 h -23.2907 c 0.35289,2.29378 1.58801,4.58756 3.35246,5.99911 1.94089,1.41157 4.41111,2.29378 6.88133,2.11734 3.35246,0 6.7049,-1.41155 8.99868,-3.70534 l 3.17601,4.58756 c -3.35246,3.17601 -7.76357,5.1169 -12.52757,5.1169 -4.41112,0.17644 -8.82224,-1.588 -11.99824,-4.58756 -3.17601,-2.99956 -4.94045,-7.23423 -4.764,-11.64535 -0.17645,-4.41111 1.58799,-8.46935 4.58756,-11.64535 2.99955,-3.176 7.23422,-4.764 11.4689,-4.764 3.88178,-0.17644 7.58712,1.41156 10.41023,4.05822 2.64667,2.64667 4.23467,6.35201 4.05822,10.23379 0.17645,1.41157 0,2.82312 -0.35288,4.23468 z m -19.93824,-10.76313 c -1.58801,1.41156 -2.82312,3.35245 -3.17601,5.46979 h 16.93868 c 0,-2.11734 -0.88222,-4.05823 -2.29377,-5.46979 -1.58801,-1.41155 -3.5289,-2.11733 -5.64623,-2.11733 -2.11734,0 -4.23468,0.70578 -5.82267,2.11733 z"
     id="path47"
     style="fill:#000000;fill-opacity:1;stroke-width:1.76445" /><path
     d="m 215.7918,640.67048 v 47.64006 h -6.17557 v -4.41112 c -2.47022,3.52889 -6.7049,5.46978 -10.93956,5.11689 -4.23468,0.17645 -8.11646,-1.588 -10.93957,-4.58755 -5.82268,-6.70491 -5.82268,-16.5858 0,-23.2907 2.82311,-2.99956 6.70489,-4.764 10.93957,-4.58756 4.05822,-0.17644 7.94,1.41156 10.41023,4.58756 v -20.29114 h 6.7049 z m -9.35157,39.87649 c 3.70534,-4.41111 3.70534,-10.76312 0,-15.17424 -1.76445,-1.76445 -4.23468,-2.64666 -6.7049,-2.64666 -2.64667,0 -5.1169,1.05866 -6.88134,2.82311 -3.70533,4.23467 -3.70533,10.41023 0,14.6449 1.76444,1.94089 4.23467,2.99956 6.7049,2.82311 2.64666,0.17645 5.11689,-0.88222 6.88134,-2.47022 z"
     id="path48"
     style="fill:#000000;fill-opacity:1;stroke-width:1.76445" /><path
     d="m 264.13762,661.3145 -3.70533,4.05823 c -1.9409,-2.11734 -4.58757,-3.176 -7.23424,-3.176 -2.82311,0 -4.23466,1.05866 -4.23466,2.99955 0,0.70579 0.35288,1.58801 0.88222,1.9409 1.05867,0.70578 2.11733,1.41156 3.176,1.76444 l 2.99956,1.23511 c 2.47022,0.88223 4.58756,2.29379 6.52845,3.88179 1.41156,1.41156 2.11734,3.35245 1.94089,5.46978 0.17645,2.82311 -1.05867,5.46978 -3.35244,7.05779 -2.47023,1.76445 -5.29335,2.64667 -8.2929,2.47022 -4.94045,0.17645 -9.70446,-2.11733 -12.52757,-5.99912 l 3.88178,-4.23466 c 2.11733,2.64666 5.46979,4.23466 8.82223,4.41111 1.23512,0 2.47023,-0.35289 3.52889,-0.88223 0.88223,-0.52932 1.41156,-1.58799 1.41156,-2.64666 0,-0.88222 -0.35289,-1.588 -1.05867,-2.11734 -1.05867,-0.70577 -2.11733,-1.23511 -3.35244,-1.76445 l -3.17601,-1.41155 c -2.29378,-0.88223 -4.41111,-2.11733 -6.17556,-3.70534 -1.41156,-1.41156 -2.11733,-3.35245 -1.94089,-5.29334 -0.17644,-2.64666 1.05867,-5.11689 3.176,-6.7049 2.29379,-1.58799 5.1169,-2.47022 7.94001,-2.47022 4.05823,0.17645 8.11645,1.94089 10.76312,5.11689 z"
     id="path49"
     style="fill:#000000;fill-opacity:1;stroke-width:1.76445" /><path
     d="m 294.4861,658.49139 c 2.29379,1.23511 4.05822,3.176 5.46979,5.29334 l -4.76401,3.70534 c -1.76445,-2.99957 -4.94045,-4.764 -8.46934,-4.764 -2.64667,0 -5.29335,1.05866 -7.05779,2.99955 -3.70533,4.05823 -3.70533,10.41024 0,14.46846 1.76444,1.94089 4.41112,2.99956 7.05779,2.82311 3.35245,0 6.52845,-1.76444 8.46934,-4.764 l 4.76401,3.5289 c -2.64668,4.58756 -7.76357,7.41067 -13.23335,7.23422 -4.41112,0.17645 -8.64579,-1.588 -11.64534,-4.76401 -6.35201,-6.352 -6.35201,-16.76223 0,-23.11424 0,0 0,0 0,0 3.17599,-2.99956 7.41066,-4.764 11.64534,-4.58756 2.82311,0 5.46978,0.70578 7.76356,1.94089 z"
     id="path50"
     style="fill:#000000;fill-opacity:1;stroke-width:1.76445" /><path
     d="m 313.89501,642.43493 c 0.88223,0.88222 1.41156,1.94089 1.41156,3.176 0,1.23512 -0.52933,2.29378 -1.41156,3.17601 -0.88222,0.88222 -1.94089,1.23511 -3.17601,1.23511 -1.23511,0 -2.29377,-0.35289 -3.176,-1.23511 -0.88222,-0.88223 -1.41155,-1.94089 -1.41155,-3.17601 0,-1.23511 0.52933,-2.29378 1.41155,-3.176 0.88223,-0.88223 2.11734,-1.41155 3.176,-1.23511 1.23512,0 2.29379,0.35288 3.17601,1.23511 z m 0.17645,46.05205 h -6.7049 v -31.2307 h 6.7049 z"
     id="path51"
     style="fill:#000000;fill-opacity:1;stroke-width:1.76445" /><path
     d="m 351.83061,675.07719 h -23.2907 c 0.3529,2.29378 1.58801,4.58756 3.35246,5.99911 1.94089,1.41157 4.41112,2.29378 6.88133,2.11734 3.35246,0 6.7049,-1.41155 8.99869,-3.70534 l 3.176,4.58756 c -3.35246,3.17601 -7.76357,5.1169 -12.52757,5.1169 -4.41112,0.17644 -8.82224,-1.588 -11.99824,-4.764 -3.176,-2.99957 -4.94045,-7.23424 -4.764,-11.64536 -0.17645,-4.41111 1.588,-8.46934 4.58756,-11.64534 2.99955,-3.176 7.23423,-4.764 11.4689,-4.764 3.88178,-0.17645 7.58712,1.41155 10.41023,4.05822 2.64667,2.64667 4.23468,6.35201 4.05822,10.23379 0,1.58801 -0.17644,2.99956 -0.35288,4.41112 z m -20.11469,-10.76313 c -1.588,1.41156 -2.82311,3.35245 -3.17601,5.46979 h 16.93869 c 0,-2.11734 -0.88222,-4.05823 -2.29378,-5.46979 -1.588,-1.41155 -3.52889,-2.11733 -5.64623,-2.11733 -2.11733,0 -4.23467,0.70578 -5.82267,2.11733 z"
     id="path52"
     style="fill:#000000;fill-opacity:1;stroke-width:1.76445" /><path
     d="m 384.11998,659.90295 c 2.11733,2.47022 3.35245,5.64623 3.17601,8.99867 v 19.58536 h -6.70491 v -18.70313 c 0.17645,-1.94089 -0.52933,-3.88178 -1.94089,-5.29335 -1.23511,-1.41155 -2.99956,-2.11733 -4.94045,-1.94089 -1.94089,0 -3.70534,0.70578 -5.11689,1.94089 -1.41156,1.41157 -2.11733,3.35246 -1.94089,5.29335 v 18.70313 h -6.70489 v -31.2307 h 6.17555 v 3.176 c 2.47023,-2.64667 5.82267,-3.88178 9.35157,-3.88178 3.176,-0.17644 6.35201,1.05867 8.64579,3.35245 z"
     id="path53"
     style="fill:#000000;fill-opacity:1;stroke-width:1.76445" /><path
     d="m 418.70313,658.49139 c 2.29377,1.23511 4.05822,3.176 5.46978,5.29334 l -4.764,3.70534 c -1.76445,-2.99957 -4.94046,-4.764 -8.46934,-4.764 -2.64668,0 -5.29335,1.05866 -7.05779,2.99955 -3.70534,4.05823 -3.70534,10.41024 0,14.46846 1.76444,1.94089 4.41111,2.99956 7.05779,2.82311 3.35244,0 6.52845,-1.76444 8.46934,-4.764 l 4.764,3.5289 c -2.64667,4.58756 -7.76357,7.41067 -13.23334,7.23422 -4.41112,0.17645 -8.6458,-1.588 -11.64536,-4.76401 -6.352,-6.352 -6.352,-16.76223 0,-23.11424 0,0 0,0 0,0 3.17601,-3.176 7.41068,-4.764 11.64536,-4.764 2.82311,0.17644 5.46977,0.70578 7.76356,2.11733 z"
     id="path54"
     style="fill:#000000;fill-opacity:1;stroke-width:1.76445" /><path
     d="m 458.93251,675.07719 h -23.2907 c 0.35289,2.29378 1.58801,4.58756 3.35245,5.99911 1.94089,1.41157 4.41112,2.29378 6.88134,2.11734 3.35245,0 6.7049,-1.41155 8.99868,-3.70534 l 3.17601,4.58756 c -3.35246,3.17601 -7.76358,5.1169 -12.52758,5.1169 -4.41111,0.17644 -8.82223,-1.588 -11.99823,-4.58756 -3.17601,-2.99956 -4.94046,-7.23423 -4.764,-11.64535 -0.17646,-4.41111 1.58799,-8.46935 4.58755,-11.64535 2.99956,-3.176 7.23423,-4.764 11.46891,-4.764 3.88178,-0.17644 7.58712,1.41156 10.41023,4.05822 2.64666,2.64667 4.23467,6.35201 4.05822,10.23379 0.17645,1.41157 0,2.82312 -0.35288,4.23468 z m -19.7618,-10.76313 c -1.58801,1.41156 -2.82312,3.35245 -3.17601,5.46979 h 16.93869 c 0,-2.11734 -0.88223,-4.05823 -2.29378,-5.46979 -1.58801,-1.41155 -3.5289,-2.11733 -5.64623,-2.11733 -2.29379,0 -4.23468,0.70578 -5.82267,2.11733 z"
     id="path55"
     style="fill:#000000;fill-opacity:1;stroke-width:1.76445" /><path
     d="m 487.86942,661.3145 -3.52889,4.05823 c -1.94089,-2.11734 -4.58755,-3.176 -7.23423,-3.176 -2.82311,0 -4.23467,1.05866 -4.23467,2.99955 0,0.70579 0.35289,1.58801 0.88222,1.9409 1.05867,0.70578 2.11733,1.41156 3.17601,1.76444 l 2.99956,1.23511 c 2.47022,0.88223 4.58756,2.29379 6.52845,3.88179 1.41155,1.41156 2.11733,3.35245 1.94089,5.46978 0.17644,2.82311 -1.05867,5.46978 -3.35245,7.05779 -2.47022,1.76445 -5.29333,2.64667 -8.2929,2.47022 -4.94045,0.17645 -9.70445,-2.11733 -12.52757,-5.99912 l 3.88178,-4.23466 c 2.11734,2.64666 5.46979,4.23466 8.82224,4.41111 1.23511,0 2.47022,-0.35289 3.52889,-0.88223 0.88222,-0.52932 1.41156,-1.58799 1.41156,-2.64666 0,-0.88222 -0.3529,-1.588 -1.05867,-2.11734 -1.05866,-0.70577 -2.11734,-1.23511 -3.35245,-1.76445 l -3.176,-1.41155 c -2.29379,-0.88223 -4.41112,-2.11733 -6.17557,-3.70534 -1.41155,-1.41156 -2.11733,-3.35245 -1.94089,-5.29334 -0.17644,-2.64666 1.05867,-5.11689 3.17601,-6.7049 2.29378,-1.58799 5.11689,-2.47022 7.94001,-2.47022 4.05822,0.17645 7.94,1.94089 10.58667,5.11689 z"
     id="path56"
     style="fill:#000000;fill-opacity:1;stroke-width:1.76445" /><polygon
     points="74.5,123.1 84,123.1 84,83.2 120.1,124.1 123.3,124.1 123.3,64 113.8,64 113.8,103.9 77.8,63 74.5,63 "
     id="polygon56"
     transform="matrix(1.7644464,0,0,1.7644464,-0.17644464,0)"
     style="fill:#000000;fill-opacity:1" /><polygon
     points="177.5,87.5 147.8,87.5 147.8,64 138.3,64 138.3,123.1 147.8,123.1 147.8,96.1 177.5,96.1 177.5,123.1 187,123.1 187,64 177.5,64 "
     id="polygon57"
     transform="matrix(1.7644464,0,0,1.7644464,-0.17644464,0)"
     style="fill:#000000;fill-opacity:1" /><path
     d="m 176.09175,358.35906 c -3.70534,2.82312 -8.2929,4.23467 -13.0569,3.88178 -10.58668,0 -19.7618,-5.46978 -27.34892,-16.5858 l -11.8218,9.17513 c 3.88178,6.88133 9.52801,12.70402 16.23292,16.5858 7.05778,4.05822 14.99778,6.17555 23.11424,5.99911 10.05735,0 18.52669,-2.82311 25.05514,-8.2929 6.52846,-5.29333 10.23378,-13.40979 9.8809,-21.87913 0.17644,-6.35201 -1.94089,-12.35113 -6.17556,-17.11513 -4.05823,-4.58756 -10.41024,-8.82223 -18.87958,-12.70401 l -11.64535,-5.29334 c -4.05822,-1.76445 -7.76356,-4.05823 -11.29245,-6.7049 -2.29378,-2.11733 -3.5289,-5.1169 -3.35245,-8.2929 -0.17645,-3.70534 1.588,-7.23423 4.58755,-9.35157 3.35246,-2.29377 7.23424,-3.35244 11.29246,-3.176 8.99868,0 16.40936,4.23467 22.05559,12.70401 l 11.64534,-8.99867 c -3.35244,-5.64623 -8.11645,-10.23379 -13.76268,-13.58624 -5.99912,-3.5289 -12.88046,-5.29333 -19.93825,-5.11689 -8.46934,-0.3529 -16.76223,2.47022 -23.46713,7.76356 -6.17556,4.94045 -9.70446,12.52757 -9.52802,20.46758 -0.17644,6.352 2.11735,12.35113 6.35201,16.93869 5.1169,5.11689 11.29246,9.17511 17.99736,11.99823 l 11.64535,5.29334 c 4.23467,1.76445 8.11645,4.05822 11.82178,7.05779 2.47023,2.29378 3.70534,5.46978 3.5289,8.64579 0.17644,4.23466 -1.76445,8.11644 -4.94045,10.58667 z"
     id="path57"
     style="fill:#000000;fill-opacity:1;stroke-width:1.76445" /><polygon
     points="148,212.9 148,162.3 168,162.3 168,153.8 118.6,153.8 118.6,162.3 138.5,162.3 138.5,212.9 "
     id="polygon58"
     transform="matrix(1.7644464,0,0,1.7644464,-0.17644464,0)"
     style="fill:#000000;fill-opacity:1" /><polygon
     points="208.6,177.4 186.4,177.4 186.4,162.3 215.8,162.3 215.8,153.8 176.9,153.8 176.9,212.9 216.9,212.9 216.9,204.4 186.4,204.4 186.4,185.7 208.6,185.7 "
     id="polygon59"
     transform="matrix(1.7644464,0,0,1.7644464,-0.17644464,0)"
     style="fill:#000000;fill-opacity:1" /><path
     d="m 547.15482,271.37186 h -32.8187 v 104.45522 h 32.8187 c 17.11513,0 30.87782,-4.94045 41.28805,-14.6449 10.41023,-9.70446 15.52712,-22.40848 15.52712,-37.75916 0,-15.52713 -5.11689,-28.0547 -15.52712,-37.58271 -10.23379,-9.70445 -23.99648,-14.46845 -41.28805,-14.46845 z m 28.93693,78.87074 c -7.23424,6.88135 -16.76225,10.41024 -28.93693,10.41024 H 531.2748 v -74.28319 h 15.88002 c 12.17468,0 21.87914,3.35244 29.11337,10.05734 7.23423,6.7049 10.76312,15.70358 10.58668,26.81959 0,11.11601 -3.70534,20.11469 -10.76312,26.99602 z"
     id="path59"
     style="fill:#000000;fill-opacity:1;stroke-width:1.76445" /><polygon
     points="363.2,162.3 392.7,162.3 392.7,153.8 353.7,153.8 353.7,212.9 393.7,212.9 393.7,204.4 363.2,204.4 363.2,185.7 385.4,185.7 385.4,177.4 363.2,177.4 "
     id="polygon60"
     transform="matrix(1.7644464,0,0,1.7644464,-0.17644464,0)"
     style="fill:#000000;fill-opacity:1" /><polygon
     points="414.3,172.9 450.3,213.9 453.5,213.9 453.5,153.8 444,153.8 444,193.7 408.1,152.8 404.8,152.8 404.8,212.9 414.3,212.9 "
     id="polygon61"
     transform="matrix(1.7644464,0,0,1.7644464,-0.17644464,0)"
     style="fill:#000000;fill-opacity:1" /><polygon
     points="267,227.8 267,266.7 10.4,266.7 10.4,10.1 267,10.1 267,69.3 267,97.1 267,114.6 267,114.6 238.6,114.6 230.7,114.6 211.5,114.6 211.5,64 202,64 202,123.1 230.7,123.1 238.6,123.1 253.9,123.1 253.9,123.1 277.1,123.1 277.1,115.9 277.1,115.6 277.1,114.6 277.1,114.6 277.1,97.1 277.1,69.3 277.1,0 0.3,0 0.3,276.8 277.1,276.8 277.1,227.8 277.1,212.9 277.1,211.9 277.1,153.8 267,153.8 267,193.4 231.2,152.8 227.9,152.8 227.9,212.9 237.4,212.9 237.4,172.9 267,206.5 267,211.9 267,212.9 "
     id="polygon62"
     transform="matrix(1.7644464,0,0,1.7644464,-0.17644464,0)"
     style="fill:#000000;fill-opacity:1" /></svg>
